#!OML:ASF F:\VICON\USERDATA\INSTALL\rory3\rory3.ASF
:FULLY-SPECIFIED
:DEGREES
136
root 0.35099 17.6381 -28.7113 -4.62249 -2.65407 -1.41935
lowerback 17.4065 0.0126814 -2.58965
upperback -0.459325 -0.204291 2.99936
thorax -10.2954 0.135526 4.82145
lowerneck -6.99875 -10.5447 -8.195
upperneck 21.1121 -12.9738 -2.1457
head 8.11515 -7.0008 -0.60214
rclavicle 1.82882e-014 -1.98785e-014
rhumerus -20.5132 -49.5932 -60.6718
rradius 87.1437
rwrist -71.432
rhand -26.0333 -1.37398
rfingers 7.12502
rthumb 0.513571 -31.3531
lclavicle 1.82882e-014 -1.98785e-014
lhumerus -43.8161 7.65618 77.1263
lradius 49.8331
lwrist 8.50055
lhand -11.8464 48.5526
lfingers 7.12502
lthumb 14.205 78.0469
rfemur -3.12532 1.08024 29.4059
rtibia 29.5561
rfoot -20.7127 -18.5247
rtoes 19.4732
lfemur -11.064 -8.76169 -9.3068
ltibia 39.3235
lfoot -9.4067 0.395432
ltoes -23.2459
137
root 0.34178 17.6371 -28.6943 -4.54229 -2.56402 -1.40471
lowerback 16.6849 -0.207981 -2.86109
upperback -0.464302 -0.526623 3.1568
thorax -9.85376 -0.0114139 5.21288
lowerneck -5.33713 -10.2341 -8.9313
upperneck 20.3068 -12.6866 -1.74098
head 7.62675 -6.88247 -0.21053
rclavicle -2.3382e-014 1.03368e-014
rhumerus -20.6822 -48.9357 -60.077
rradius 87.0353
rwrist -70.4797
rhand -26.175 -0.75495
rfingers 7.12502
rthumb 0.376679 -30.7344
lclavicle -2.3382e-014 1.03368e-014
lhumerus -44.4996 8.42867 76.7545
lradius 49.761
lwrist 8.67928
lhand -12.195 48.7299
lfingers 7.12502
lthumb 13.869 78.2475
rfemur -3.13826 1.16224 29.4364
rtibia 29.5513
rfoot -20.9447 -18.5356
rtoes 20.3594
lfemur -11.3353 -8.58071 -9.24625
ltibia 39.6806
lfoot -9.31025 0.135195
ltoes -22.9504
138
root 0.332819 17.6363 -28.6778 -4.47095 -2.2104 -1.39722
lowerback 16.4262 -0.20962 -2.89133
upperback -0.244623 -0.535681 3.12655
thorax -9.46251 -0.0306009 5.18427
lowerneck -5.62796 -10.3269 -8.70038
upperneck 20.2303 -12.804 -1.7772
head 7.63624 -6.92054 -0.28067
rclavicle 5.49143e-015 1.59028e-014
rhumerus -20.5764 -49.4657 -59.5513
rradius 86.9371
rwrist -69.5768
rhand -26.1021 -0.328055
rfingers 7.12502
rthumb 0.447182 -30.3073
lclavicle 5.49143e-015 1.59028e-014
lhumerus -44.0147 8.56874 76.4975
lradius 49.5161
lwrist 7.86118
lhand -11.3649 50.2971
lfingers 7.12502
lthumb 14.6689 79.7582
rfemur -3.14927 0.975701 29.4606
rtibia 29.5285
rfoot -20.9423 -18.7572
rtoes 19.7637
lfemur -11.7163 -8.49438 -9.17312
ltibia 40.0728
lfoot -9.15664 -0.246193
ltoes -22.9474
139
root 0.322282 17.6358 -28.6653 -4.46116 -1.92262 -1.48264
lowerback 17.3608 -0.25587 -2.86687
upperback -0.68429 -0.601298 3.13712
thorax -10.4762 -0.0242971 5.24237
lowerneck -5.77041 -10.312 -8.60111
upperneck 20.7564 -12.7381 -2.02427
head 7.81083 -6.91188 -0.393747
rclavicle 6.16232e-015 -1.82882e-014
rhumerus -21.7821 -49.2258 -58.0782
rradius 87.0478
rwrist -68.8971
rhand -26.118 -0.0938324
rfingers 7.12502
rthumb 0.431816 -30.0731
lclavicle 6.16232e-015 -1.82882e-014
lhumerus -44.7508 8.52324 76.1908
lradius 49.5519
lwrist 7.79286
lhand -10.9534 49.7723
lfingers 7.12502
lthumb 15.0654 79.2041
rfemur -3.10713 0.776072 29.5916
rtibia 29.4772
rfoot -21.0255 -18.8478
rtoes 20.0065
lfemur -12.0504 -8.4066 -8.99051
ltibia 40.4992
lfoot -8.97808 -0.639299
ltoes -23.3409
140
root 0.312298 17.6291 -28.6519 -4.46477 -1.76589 -1.68993
lowerback 17.0419 -0.338411 -2.79115
upperback -0.432737 -0.680188 3.26708
thorax -10.0045 -0.0807592 5.34365
lowerneck -5.8094 -10.2637 -8.64224
upperneck 20.5611 -12.6554 -2.03915
head 7.7519 -6.87267 -0.379442
rclavicle 2.08475e-014 -1.90833e-014
rhumerus -21.5075 -49.3111 -57.7249
rradius 87.0841
rwrist -68.2079
rhand -27.1478 3.27234
rfingers 7.12502
rthumb -0.562835 -26.7067
lclavicle 2.08475e-014 -1.90833e-014
lhumerus -44.5204 8.60424 76.407
lradius 49.4633
lwrist 9.39509
lhand -12.2988 47.2433
lfingers 7.12502
lthumb 13.7691 76.7677
rfemur -3.0319 0.644584 29.8642
rtibia 29.4279
rfoot -20.9885 -19.009
rtoes 19.7766
lfemur -12.3425 -8.16911 -8.6545
ltibia 40.9315
lfoot -8.81764 -1.04084
ltoes -23.722
141
root 0.303685 17.6208 -28.6417 -4.61677 -1.4931 -1.82848
lowerback 17.5225 -0.348804 -2.61403
upperback -0.417308 -0.669876 3.20803
thorax -10.2641 -0.0793134 5.18942
lowerneck -6.16999 -10.3277 -8.26525
upperneck 20.8916 -12.7237 -2.21958
head 7.88709 -6.8962 -0.530374
rclavicle -3.2054e-015 8.74653e-015
rhumerus -21.9552 -49.6718 -56.9191
rradius 87.1547
rwrist -67.4769
rhand -26.304 0.533199
rfingers 7.12502
rthumb 0.252085 -29.4464
lclavicle -3.2054e-015 8.74653e-015
lhumerus -44.3922 8.43474 76.2269
lradius 49.2752
lwrist 9.49989
lhand -12.4421 47.489
lfingers 7.12502
lthumb 13.6309 77.0227
rfemur -2.80791 0.388153 30.0441
rtibia 29.3822
rfoot -21.1387 -19.0296
rtoes 20.2307
lfemur -12.5304 -8.01192 -8.41489
ltibia 41.3326
lfoot -8.50148 -1.5216
ltoes -22.992
142
root 0.299755 17.6217 -28.6185 -4.51745 -1.34988 -1.75417
lowerback 16.4929 -0.345752 -2.55632
upperback 0.172341 -0.657529 3.12056
thorax -9.03059 -0.124285 5.00319
lowerneck -6.55502 -10.3688 -8.1812
upperneck 20.7947 -12.7907 -2.0143
head 7.93148 -6.89723 -0.503482
rclavicle 1.3244e-014 4.01545e-014
rhumerus -21.1526 -50.6153 -57.0008
rradius 87.141
rwrist -66.662
rhand -26.1546 1.98567
rfingers 7.12502
rthumb 0.396411 -27.9937
lclavicle 1.3244e-014 4.01545e-014
lhumerus -43.4313 8.84486 75.9398
lradius 48.9962
lwrist 8.12551
lhand -11.4341 49.5253
lfingers 7.12502
lthumb 14.6023 78.9913
rfemur -2.8169 0.287786 29.9629
rtibia 29.354
rfoot -21.1994 -19.1106
rtoes 19.3844
lfemur -12.8431 -7.76332 -8.42371
ltibia 41.6693
lfoot -8.33282 -1.8759
ltoes -22.7262
143
root 0.295914 17.6204 -28.5964 -4.47796 -1.17977 -1.68263
lowerback 16.9661 -0.421655 -2.70466
upperback -0.184722 -0.785274 3.16251
thorax -9.67626 -0.152693 5.19304
lowerneck -6.29702 -10.163 -8.30105
upperneck 21.2424 -12.4825 -2.18522
head 8.02493 -6.78455 -0.510134
rclavicle 8.94531e-016 -2.06736e-014
rhumerus -22.0356 -50.3033 -55.7153
rradius 87.2779
rwrist -65.9134
rhand -25.9466 1.88693
rfingers 7.12502
rthumb 0.597347 -28.092
lclavicle 8.94531e-016 -2.06736e-014
lhumerus -44.2416 9.00447 75.7068
lradius 48.8535
lwrist 8.301
lhand -12.3859 50.1447
lfingers 7.12502
lthumb 13.6851 79.6747
rfemur -2.76956 0.105722 29.8715
rtibia 29.3328
rfoot -21.4023 -19.0115
rtoes 19.8551
lfemur -13.1012 -7.55446 -8.44103
ltibia 41.9787
lfoot -8.12624 -2.26115
ltoes -22.6276
144
root 0.291119 17.6221 -28.5719 -4.43207 -1.1026 -1.60765
lowerback 16.5887 -0.531094 -2.74737
upperback -0.0738535 -0.936563 3.14971
thorax -9.32291 -0.236107 5.22299
lowerneck -5.94635 -9.9212 -8.44735
upperneck 21.2071 -12.1837 -2.07098
head 7.95952 -6.64522 -0.400191
rclavicle 1.16538e-014 -1.03368e-014
rhumerus -21.8504 -50.229 -55.4561
rradius 87.3547
rwrist -64.9985
rhand -25.7576 2.11012
rfingers 7.12502
rthumb 0.779877 -27.8682
lclavicle 1.16538e-014 -1.03368e-014
lhumerus -44.4305 9.25278 75.4827
lradius 48.7537
lwrist 8.35071
lhand -12.5981 50.6894
lfingers 7.12502
lthumb 13.4806 80.2331
rfemur -2.71465 -0.0718471 29.7665
rtibia 29.2979
rfoot -21.3987 -19.026
rtoes 18.6875
lfemur -13.3359 -7.35097 -8.46283
ltibia 42.3062
lfoot -7.81215 -2.58565
ltoes -22.0838
145
root 0.285494 17.6212 -28.5595 -4.50843 -0.782237 -1.56206
lowerback 16.4858 -0.525959 -2.72026
upperback 0.204576 -0.930869 3.09247
thorax -8.9603 -0.251599 5.1301
lowerneck -6.16276 -9.94954 -8.16855
upperneck 21.2236 -12.2142 -2.17978
head 7.9764 -6.64617 -0.490758
rclavicle -9.93923e-016 -2.50469e-014
rhumerus -21.5784 -50.8453 -55.1633
rradius 87.4134
rwrist -63.973
rhand -25.5047 2.06228
rfingers 7.12502
rthumb 1.02407 -27.915
lclavicle -9.93923e-016 -2.50469e-014
lhumerus -44.065 9.09834 75.5318
lradius 48.637
lwrist 8.29704
lhand -12.6155 52.0691
lfingers 7.12502
lthumb 13.4638 81.6139
rfemur -2.57322 -0.434119 29.689
rtibia 29.237
rfoot -21.4542 -19.0154
rtoes 18.9088
lfemur -13.6058 -7.27284 -8.45712
ltibia 42.7025
lfoot -7.44585 -2.96006
ltoes -21.1261
146
root 0.281648 17.6187 -28.5433 -4.51765 -0.718535 -1.69017
lowerback 16.8622 -0.631223 -2.53907
upperback 0.0171535 -1.03587 3.11854
thorax -9.37001 -0.294362 5.09965
lowerneck -6.30146 -9.76319 -8.20526
upperneck 21.8844 -11.914 -2.30523
head 8.21003 -6.52814 -0.52664
rclavicle 7.52897e-015 6.75868e-015
rhumerus -21.823 -50.7574 -54.5873
rradius 87.5157
rwrist -62.7647
rhand -24.9703 1.60582
rfingers 7.12502
rthumb 1.54021 -28.3684
lclavicle 7.52897e-015 6.75868e-015
lhumerus -44.5267 9.32663 75.2716
lradius 48.4295
lwrist 8.11557
lhand -12.664 52.8397
lfingers 7.12502
lthumb 13.417 82.3877
rfemur -2.44202 -0.549746 29.8281
rtibia 29.1387
rfoot -21.4653 -18.9585
rtoes 19.1926
lfemur -13.867 -6.9112 -8.22305
ltibia 43.1579
lfoot -7.21867 -3.60309
ltoes -28.2016
147
root 0.279112 17.6173 -28.5253 -4.53237 -0.739246 -1.82035
lowerback 16.4533 -0.690916 -2.44702
upperback 0.298697 -1.08686 3.21992
thorax -8.82434 -0.341065 5.14485
lowerneck -6.38179 -9.59026 -8.30602
upperneck 21.9846 -11.6651 -2.22951
head 8.2627 -6.41166 -0.469801
rclavicle 1.33186e-014 -2.54444e-014
rhumerus -21.1438 -51.0176 -54.6081
rradius 87.5622
rwrist -61.5379
rhand -24.9872 2.30304
rfingers 7.12502
rthumb 1.52393 -27.6713
lclavicle 1.33186e-014 -2.54444e-014
lhumerus -44.2779 9.7439 75.2174
lradius 48.0878
lwrist 7.97805
lhand -12.8083 52.5617
lfingers 7.12502
lthumb 13.278 82.1187
rfemur -2.29842 -0.616002 29.9699
rtibia 29.0308
rfoot -21.499 -18.8786
rtoes 19.2679
lfemur -14.1089 -6.56475 -7.99725
ltibia 43.662
lfoot -7.09069 -3.94766
ltoes -25.6152
148
root 0.279485 17.6169 -28.5058 -4.51936 -0.597943 -1.87592
lowerback 16.8357 -0.666865 -2.31187
upperback 0.172526 -1.03255 3.19686
thorax -9.18667 -0.308957 5.04781
lowerneck -6.80857 -9.5079 -7.90491
upperneck 22.739 -11.4998 -2.55443
head 8.54286 -6.34183 -0.666581
rclavicle -8.99501e-015 1.66979e-014
rhumerus -21.6379 -51.1511 -53.699
rradius 87.7293
rwrist -60.5825
rhand -25.3622 3.25557
rfingers 7.12502
rthumb 1.16176 -26.721
lclavicle -8.99501e-015 1.66979e-014
lhumerus -44.4778 9.53961 75.1728
lradius 47.842
lwrist 7.94246
lhand -12.2597 52.4426
lfingers 7.12502
lthumb 13.8068 81.9644
rfemur -2.20367 -0.78379 30.0043
rtibia 28.932
rfoot -21.462 -18.9064
rtoes 18.6029
lfemur -14.4705 -6.35986 -7.86583
ltibia 44.1701
lfoot -6.83352 -4.27467
ltoes -20.5284
149
root 0.281558 17.6137 -28.4882 -4.45595 -0.441451 -1.99537
lowerback 17.4721 -0.807882 -2.45919
upperback -0.440714 -1.21973 3.47358
thorax -10.1989 -0.342362 5.53484
lowerneck -6.02322 -9.12706 -8.11031
upperneck 23.3206 -10.9291 -2.95678
head 8.57704 -6.14406 -0.685082
rclavicle -9.49197e-015 1.19271e-014
rhumerus -22.4762 -50.1431 -52.3309
rradius 87.8431
rwrist -59.5608
rhand -24.8494 3.06365
rfingers 7.12502
rthumb 1.65702 -26.9097
lclavicle -9.49197e-015 1.19271e-014
lhumerus -45.9124 9.83587 75.1503
lradius 47.7644
lwrist 8.3835
lhand -11.8414 54.1378
lfingers 7.12502
lthumb 14.2098 83.6318
rfemur -2.19428 -0.994584 30.1031
rtibia 28.8491
rfoot -21.3617 -18.8646
rtoes 18.4325
lfemur -14.9077 -6.11528 -7.64603
ltibia 44.6824
lfoot -6.47517 -4.58295
ltoes -19.4983
150
root 0.285152 17.6117 -28.4747 -4.3401 -0.290187 -2.12051
lowerback 17.035 -0.686694 -1.86914
upperback 0.273096 -0.969184 3.2468
thorax -9.20095 -0.298226 4.83655
lowerneck -8.2007 -9.35817 -7.2602
upperneck 24.0699 -11.1492 -3.06502
head 9.17186 -6.18433 -1.01819
rclavicle -2.03754e-014 -2.06736e-014
rhumerus -21.248 -52.0373 -52.905
rradius 88.0006
rwrist -58.2037
rhand -24.0042 2.55003
rfingers 7.12502
rthumb 2.47329 -27.4154
lclavicle -2.03754e-014 -2.06736e-014
lhumerus -44.1618 9.39479 75.2823
lradius 47.2762
lwrist 8.0834
lhand -11.9527 51.1017
lfingers 7.12502
lthumb 14.1026 80.6032
rfemur -2.25167 -1.14309 30.216
rtibia 28.8128
rfoot -21.4858 -18.9145
rtoes 18.2269
lfemur -15.3922 -5.94385 -7.42892
ltibia 45.1686
lfoot -6.10358 -4.75801
ltoes -17.9396
